#!OML:ASF H:\Dans Jumps\Project 1\Capture day 1\Session 1\subject.ASF
:FULLY-SPECIFIED
:DEGREES
266
root 0.657589 16.425 -15.6825 15.787 -1.8476 -1.95179
lowerback 10.1044 0.112688 0.153889
upperback 6.37612 0.159137 1.96686
thorax 0.95735 0.0441364 1.93315
lowerneck -15.7621 0.833871 -1.5019
upperneck 16.2855 1.70455 -1.08441
head 7.61397 0.610274 0.0776822
rclavicle -8.34896e-015 1.98785e-016
rhumerus -26.3728 -14.9695 -78.7002
rradius 23.5077
rwrist 32.983
rhand -19.7869 -26.6361
rfingers 7.12502
rthumb 6.54557 -56.5149
lclavicle -8.34896e-015 1.98785e-016
lhumerus -23.0368 -1.13391 86.9734
lradius 18.4062
lwrist 5.08814
lhand -25.7709 -2.65859
lfingers 7.12502
lthumb 0.767051 27.3198
rfemur -45.6225 -1.97923 20.6509
rtibia 50.9538
rfoot -22.2287 -6.36331
rtoes 2.69837
lfemur -44.5326 8.4593 -19.3811
ltibia 50.7775
lfoot -21.3256 11.1336
ltoes -7.57294
267
root 0.656527 16.3895 -15.6927 15.9863 -1.82193 -1.95713
lowerback 10.311 0.109324 0.141918
upperback 6.40347 0.155818 1.97323
thorax 0.873647 0.0421396 1.94698
lowerneck -15.8054 0.838745 -1.49363
upperneck 16.016 1.71212 -1.12057
head 7.53318 0.614019 0.0646877
rclavicle 7.15625e-015 1.68967e-014
rhumerus -26.6011 -15.1884 -78.5346
rradius 23.4134
rwrist 33.103
rhand -19.7731 -26.6836
rfingers 7.12502
rthumb 6.55886 -56.562
lclavicle 7.15625e-015 1.68967e-014
lhumerus -23.1864 -0.752509 86.8803
lradius 18.1578
lwrist 4.77041
lhand -25.7165 -2.50269
lfingers 7.12502
lthumb 0.819603 27.4755
rfemur -46.2215 -1.94558 20.6694
rtibia 51.6066
rfoot -22.6315 -6.61156
rtoes 2.63301
lfemur -45.1321 8.366 -19.3843
ltibia 51.4399
lfoot -21.6844 11.6321
ltoes -7.30242
268
root 0.655248 16.3553 -15.7011 16.1907 -1.7907 -1.9628
lowerback 10.5078 0.104811 0.130346
upperback 6.42626 0.15097 1.98106
thorax 0.790683 0.0394036 1.96228
lowerneck -15.8447 0.843336 -1.48808
upperneck 15.7514 1.71923 -1.15364
head 7.45337 0.617673 0.0531252
rclavicle -5.56597e-015 -2.38542e-015
rhumerus -26.826 -15.3955 -78.3752
rradius 23.3259
rwrist 33.2253
rhand -19.7482 -26.735
rfingers 7.12502
rthumb 6.58287 -56.6127
lclavicle -5.56597e-015 -2.38542e-015
lhumerus -23.3274 -0.357488 86.7834
lradius 17.9016
lwrist 4.43421
lhand -25.6543 -2.34501
lfingers 7.12502
lthumb 0.879671 27.6329
rfemur -46.8051 -1.90854 20.6894
rtibia 52.2325
rfoot -23.0155 -6.87422
rtoes 2.61457
lfemur -45.7164 8.26563 -19.3843
ltibia 52.0775
lfoot -22.0235 12.1397
ltoes -6.89522
269
root 0.653793 16.3227 -15.7075 16.3984 -1.7545 -1.96035
lowerback 10.6933 0.0994524 0.112946
upperback 6.4468 0.144401 1.98776
thorax 0.711703 0.0356905 1.97991
lowerneck -15.8822 0.846715 -1.48797
upperneck 15.4946 1.72502 -1.18163
head 7.3759 0.620809 0.0440072
rclavicle -6.95746e-015 2.96189e-014
rhumerus -27.0452 -15.5956 -78.2203
rradius 23.2425
rwrist 33.3578
rhand -19.7246 -26.7778
rfingers 7.12502
rthumb 6.60567 -56.6548
lclavicle -6.95746e-015 2.96189e-014
lhumerus -23.4573 0.0451104 86.6837
lradius 17.6403
lwrist 4.07734
lhand -25.5718 -2.16392
lfingers 7.12502
lthumb 0.959294 27.8137
rfemur -47.3717 -1.87274 20.7028
rtibia 52.8279
rfoot -23.373 -7.15737
rtoes 2.57085
lfemur -46.2798 8.15854 -19.3918
ltibia 52.6821
lfoot -22.3483 12.6277
ltoes -6.50468
270
root 0.652136 16.2919 -15.7119 16.604 -1.70889 -1.95396
lowerback 10.8732 0.0912439 0.0961681
upperback 6.46677 0.134063 1.99452
thorax 0.635374 0.0301334 1.99768
lowerneck -15.9219 0.850256 -1.48861
upperneck 15.249 1.73129 -1.20927
head 7.3026 0.624053 0.0352377
rclavicle -5.1684e-015 -1.90833e-014
rhumerus -27.2567 -15.7865 -78.0722
rradius 23.1637
rwrist 33.4946
rhand -19.6946 -26.8112
rfingers 7.12502
rthumb 6.63466 -56.6872
lclavicle -5.1684e-015 -1.90833e-014
lhumerus -23.5702 0.463866 86.5776
lradius 17.3717
lwrist 3.69205
lhand -25.4552 -1.97017
lfingers 7.12502
lthumb 1.07196 28.0069
rfemur -47.9135 -1.83827 20.7139
rtibia 53.3906
rfoot -23.7074 -7.45448
rtoes 2.48084
lfemur -46.8168 8.04586 -19.4018
ltibia 53.2492
lfoot -22.6629 13.0567
ltoes -6.22612
271
root 0.650317 16.263 -15.7145 16.8019 -1.65165 -1.94167
lowerback 11.0495 0.0803389 0.0805651
upperback 6.48734 0.120227 2.0018
thorax 0.561892 0.0228708 2.01577
lowerneck -15.9805 0.853944 -1.48658
upperneck 15.0323 1.73893 -1.2419
head 7.24218 0.62721 0.0247349
rclavicle 6.75868e-015 2.60408e-014
rhumerus -27.4603 -15.9966 -77.9178
rradius 23.0798
rwrist 33.662
rhand -19.6616 -26.8101
rfingers 7.12502
rthumb 6.66652 -56.6852
lclavicle 6.75868e-015 2.60408e-014
lhumerus -23.6689 0.888318 86.4715
lradius 17.0996
lwrist 3.28785
lhand -25.3491 -1.83625
lfingers 7.12502
lthumb 1.17439 28.1403
rfemur -48.423 -1.81035 20.721
rtibia 53.9195
rfoot -24.031 -7.75382
rtoes 2.32896
lfemur -47.3211 7.92493 -19.4156
ltibia 53.7754
lfoot -22.9696 13.4013
ltoes -6.11911
272
root 0.648259 16.2359 -15.7154 16.9902 -1.58145 -1.92628
lowerback 11.2239 0.0662667 0.0681127
upperback 6.5103 0.102469 2.01088
thorax 0.492156 0.0137055 2.03445
lowerneck -16.0594 0.857307 -1.48009
upperneck 14.8418 1.74722 -1.28169
head 7.19402 0.629864 0.011433
rclavicle 6.16232e-015 9.34288e-015
rhumerus -27.6534 -16.2224 -77.7589
rradius 22.9937
rwrist 33.8451
rhand -19.6233 -26.778
rfingers 7.12502
rthumb 6.70352 -56.6519
lclavicle 6.16232e-015 9.34288e-015
lhumerus -23.7536 1.31899 86.3658
lradius 16.8258
lwrist 2.86088
lhand -25.2655 -1.77616
lfingers 7.12502
lthumb 1.25515 28.1999
rfemur -48.8981 -1.78895 20.7263
rtibia 54.4172
rfoot -24.3563 -8.03478
rtoes 2.12666
lfemur -47.7934 7.79194 -19.4272
ltibia 54.2632
lfoot -23.2614 13.6694
ltoes -6.1679
273
root 0.645913 16.2102 -15.7148 17.1742 -1.49852 -1.91497
lowerback 11.3993 0.04979 0.0628734
upperback 6.53054 0.0823437 2.0242
thorax 0.419261 0.00352821 2.05385
lowerneck -16.1416 0.85903 -1.47676
upperneck 14.6652 1.75389 -1.31925
head 7.15096 0.631594 -0.000735098
rclavicle -8.54774e-015 3.26007e-014
rhumerus -27.8389 -16.457 -77.5972
rradius 22.9065
rwrist 34.0357
rhand -19.5778 -26.7301
rfingers 7.12502
rthumb 6.74735 -56.6026
lclavicle -8.54774e-015 3.26007e-014
lhumerus -23.8304 1.75337 86.262
lradius 16.5605
lwrist 2.41393
lhand -25.163 -1.69117
lfingers 7.12502
lthumb 1.35411 28.2843
rfemur -49.3447 -1.76695 20.7348
rtibia 54.8861
rfoot -24.6896 -8.28121
rtoes 1.93339
lfemur -48.2419 7.6428 -19.4255
ltibia 54.7166
lfoot -23.533 13.8792
ltoes -6.2536
274
root 0.643226 16.1859 -15.7128 17.3564 -1.40472 -1.90678
lowerback 11.5731 0.032114 0.063138
upperback 6.54752 0.061293 2.04072
thorax 0.343977 -0.00697147 2.07367
lowerneck -16.2293 0.86055 -1.46712
upperneck 14.5014 1.75999 -1.36208
head 7.11314 0.632752 -0.0156299
rclavicle 3.37934e-015 -1.64991e-014
rhumerus -28.0158 -16.706 -77.4325
rradius 22.8162
rwrist 34.2289
rhand -19.5348 -26.657
rfingers 7.12502
rthumb 6.7889 -56.5281
lclavicle 3.37934e-015 -1.64991e-014
lhumerus -23.9009 2.18056 86.1625
lradius 16.3028
lwrist 1.94671
lhand -25.1003 -1.68605
lfingers 7.12502
lthumb 1.41473 28.289
rfemur -49.7661 -1.7409 20.7442
rtibia 55.3296
rfoot -25.0374 -8.48955
rtoes 1.79214
lfemur -48.6704 7.47859 -19.4103
ltibia 55.1416
lfoot -23.7806 14.0769
ltoes -6.36341
275
root 0.640159 16.1629 -15.7096 17.5452 -1.30222 -1.90159
lowerback 11.7435 0.0142 0.0658094
upperback 6.55809 0.040352 2.06018
thorax 0.263903 -0.0173277 2.09531
lowerneck -16.3021 0.860046 -1.45726
upperneck 14.3311 1.7621 -1.40138
head 7.07063 0.632517 -0.029913
rclavicle -2.18663e-015 -8.54774e-015
rhumerus -28.1872 -16.9404 -77.2774
rradius 22.7348
rwrist 34.3966
rhand -19.4942 -26.593
rfingers 7.12502
rthumb 6.82809 -56.4629
lclavicle -2.18663e-015 -8.54774e-015
lhumerus -23.9645 2.59037 86.0686
lradius 16.056
lwrist 1.46943
lhand -25.0303 -1.66733
lfingers 7.12502
lthumb 1.4823 28.3073
rfemur -50.1724 -1.70749 20.7536
rtibia 55.7484
rfoot -25.3844 -8.67618
rtoes 1.69405
lfemur -49.088 7.30135 -19.3823
ltibia 55.5415
lfoot -24.0025 14.2898
ltoes -6.47415
276
root 0.636668 16.1413 -15.7051 17.7451 -1.19187 -1.90007
lowerback 11.906 -0.0042315 0.0701754
upperback 6.56399 0.0190139 2.08266
thorax 0.183332 -0.0278417 2.11927
lowerneck -16.3696 0.85831 -1.44934
upperneck 14.1556 1.76178 -1.43564
head 7.02546 0.631595 -0.0425203
rclavicle 3.18055e-015 2.0276e-014
rhumerus -28.3483 -17.1418 -77.1417
rradius 22.6695
rwrist 34.5219
rhand -19.4605 -26.5436
rfingers 7.12502
rthumb 6.86066 -56.4124
lclavicle 3.18055e-015 2.0276e-014
lhumerus -24.0168 2.97221 85.9835
lradius 15.825
lwrist 1.00537
lhand -24.9575 -1.64748
lfingers 7.12502
lthumb 1.55262 28.3266
rfemur -50.5686 -1.66588 20.7642
rtibia 56.1421
rfoot -25.7234 -8.85574
rtoes 1.6409
lfemur -49.4993 7.1145 -19.3423
ltibia 55.9182
lfoot -24.2091 14.5231
ltoes -6.56938
277
root 0.632826 16.1212 -15.6991 17.958 -1.07905 -1.89653
lowerback 12.0557 -0.0216928 0.0711261
upperback 6.56476 -0.00137063 2.1048
thorax 0.104352 -0.0379168 2.14477
lowerneck -16.424 0.854822 -1.4425
upperneck 13.9724 1.75758 -1.46289
head 6.97549 0.629586 -0.0531534
rclavicle 3.97569e-016 1.37161e-014
rhumerus -28.5044 -17.2929 -77.0329
rradius 22.6313
rwrist 34.5929
rhand -19.4307 -26.5153
rfingers 7.12502
rthumb 6.88937 -56.3832
lclavicle 3.97569e-016 1.37161e-014
lhumerus -24.0617 3.30688 85.9121
lradius 15.6144
lwrist 0.58446
lhand -24.8927 -1.61822
lfingers 7.12502
lthumb 1.61521 28.3554
rfemur -50.9587 -1.61787 20.771
rtibia 56.5084
rfoot -26.0452 -9.04324
rtoes 1.59297
lfemur -49.904 6.92408 -19.3003
ltibia 56.2695
lfoot -24.4085 14.7662
ltoes -6.65872
278
root 0.628694 16.103 -15.6914 18.1798 -0.963591 -1.89745
lowerback 12.1964 -0.0385482 0.0752519
upperback 6.56206 -0.0206016 2.1282
thorax 0.0266405 -0.0473301 2.16973
lowerneck -16.4681 0.849167 -1.44043
upperneck 13.7841 1.74943 -1.48006
head 6.92199 0.626487 -0.0602042
rclavicle -7.95139e-016 5.96354e-016
rhumerus -28.6527 -17.3897 -76.9526
rradius 22.6172
rwrist 34.6099
rhand -19.3971 -26.5149
rfingers 7.12502
rthumb 6.9218 -56.3818
lclavicle -7.95139e-016 5.96354e-016
lhumerus -24.103 3.5962 85.8538
lradius 15.4292
lwrist 0.211589
lhand -24.8251 -1.58448
lfingers 7.12502
lthumb 1.68053 28.3886
rfemur -51.3342 -1.56442 20.7816
rtibia 56.8443
rfoot -26.3503 -9.24169
rtoes 1.53646
lfemur -50.2962 6.73723 -19.2516
ltibia 56.5933
lfoot -24.6082 14.9958
ltoes -6.74779
279
root 0.624204 16.0869 -15.6821 18.4062 -0.847705 -1.90031
lowerback 12.3296 -0.0531805 0.080555
upperback 6.55735 -0.0367833 2.15149
thorax -0.0492244 -0.0551785 2.19361
lowerneck -16.5145 0.840499 -1.44522
upperneck 13.6038 1.73678 -1.4841
head 6.87133 0.621944 -0.0623184
rclavicle 2.5842e-015 -1.98785e-015
rhumerus -28.7942 -17.4546 -76.8923
rradius 22.6219
rwrist 34.6008
rhand -19.3617 -26.5178
rfingers 7.12502
rthumb 6.95601 -56.3835
lclavicle 2.5842e-015 -1.98785e-015
lhumerus -24.1411 3.82487 85.8147
lradius 15.2695
lwrist -0.0907521
lhand -24.8041 -1.62586
lfingers 7.12502
lthumb 1.70073 28.3471
rfemur -51.6908 -1.50758 20.7945
rtibia 57.1491
rfoot -26.6431 -9.44488
rtoes 1.46396
lfemur -50.6699 6.56011 -19.2011
ltibia 56.8873
lfoot -24.8135 15.1959
ltoes -6.83871
